HIERARCHY
ROOT Hips
{
	OFFSET -0.001795 -0.223333 0.028219
	CHANNELS 6 Xposition Yposition Zposition Zrotation Yrotation Xrotation 
	JOINT LeftUpLeg
	{
		OFFSET 0.069520 -0.091406 -0.006815
		CHANNELS 3 Zrotation Yrotation Xrotation
		JOINT LeftLeg
		{
			OFFSET 0.034277 -0.375199 -0.004496
			CHANNELS 3 Zrotation Yrotation Xrotation
			JOINT LeftFoot
			{
				OFFSET -0.013596 -0.397961 -0.043693
				CHANNELS 3 Zrotation Yrotation Xrotation
				JOINT LeftToe
				{
					OFFSET 0.026358 -0.055791 0.119288
					CHANNELS 3 Zrotation Yrotation Xrotation
					End Site
					{
						OFFSET 0.000000 0.000000 0.000000
					}
				}
			}
		}
	}
	JOINT RightUpLeg
	{
		OFFSET -0.067670 -0.090522 -0.004320
		CHANNELS 3 Zrotation Yrotation Xrotation
		JOINT RightLeg
		{
			OFFSET -0.038290 -0.382569 -0.008850
			CHANNELS 3 Zrotation Yrotation Xrotation
			JOINT RightFoot
			{
				OFFSET 0.015774 -0.398415 -0.042312
				CHANNELS 3 Zrotation Yrotation Xrotation
				JOINT RightToe
				{
					OFFSET -0.025372 -0.048144 0.123348
					CHANNELS 3 Zrotation Yrotation Xrotation
					End Site
					{
						OFFSET 0.000000 0.000000 0.000000
					}
				}
			}
		}
	}
	JOINT Spine
	{
		OFFSET -0.002533 0.108963 -0.026696
		CHANNELS 3 Zrotation Yrotation Xrotation
		JOINT Spine1
		{
			OFFSET 0.005487 0.135180 0.001092
			CHANNELS 3 Zrotation Yrotation Xrotation
			JOINT Spine2
			{
				OFFSET 0.001457 0.052922 0.025425
				CHANNELS 3 Zrotation Yrotation Xrotation
				JOINT Neck
				{
					OFFSET -0.002778 0.213870 -0.042857
					CHANNELS 3 Zrotation Yrotation Xrotation
					JOINT Head
					{
						OFFSET 0.005152 0.064970 0.051349
						CHANNELS 3 Zrotation Yrotation Xrotation
						End Site
						{
							OFFSET 0.000000 0.000000 0.000000
						}
					}
				}
				JOINT LeftShoulder
				{
					OFFSET 0.078845 0.121749 -0.034090
					CHANNELS 3 Zrotation Yrotation Xrotation
					JOINT LeftArm
					{
						OFFSET 0.090977 0.030469 -0.008868
						CHANNELS 3 Zrotation Yrotation Xrotation
						JOINT LeftForeArm
						{
							OFFSET 0.259612 -0.012772 -0.027456
							CHANNELS 3 Zrotation Yrotation Xrotation
							JOINT LeftHand
							{
								OFFSET 0.249234 0.008986 -0.001171
								CHANNELS 3 Zrotation Yrotation Xrotation
								End Site
								{
									OFFSET 0.000000 0.000000 0.000000
								}
							}
						}
					}
				}
				JOINT RightShoulder
				{
					OFFSET -0.081759 0.118833 -0.038615
					CHANNELS 3 Zrotation Yrotation Xrotation
					JOINT RightArm
					{
						OFFSET -0.096012 0.032551 -0.009143
						CHANNELS 3 Zrotation Yrotation Xrotation
						JOINT RightForeArm
						{
							OFFSET -0.253742 -0.013329 -0.021401
							CHANNELS 3 Zrotation Yrotation Xrotation
							JOINT RightHand
							{
								OFFSET -0.255298 0.007772 -0.005559
								CHANNELS 3 Zrotation Yrotation Xrotation
								End Site
								{
									OFFSET 0.000000 0.000000 0.000000
								}
							}
						}
					}
				}
			}
		}
	}
}
MOTION
Frames: 9
Frame Time: 0.05000000
0.000000 0.908563 0.000000 0.703270 -11.234424 -1.895943 4.672034 -0.583329 -24.609427 -3.967521 0.537742 -0.052753 7.154731 14.892255 16.172406 0.000000 0.000000 0.000000 0.319096 -1.433940 20.988768 -0.093537 0.178383 3.691160 -0.794130 -1.343510 -0.899395 0.000000 0.000000 0.000000 -4.084936 0.079805 9.763808 5.004584 -1.178394 -19.394991 3.118405 11.347694 27.566619 1.166625 2.118560 -33.079094 0.000000 0.000000 0.000000 -30.166833 -2.446563 -2.025260 -46.910232 -1.992654 -6.509162 -12.351759 -22.250398 3.362267 0.000000 0.000000 0.000000 19.697340 9.836195 5.396558 50.479262 14.616773 -1.457394 6.645886 33.169236 3.635542 0.000000 0.000000 0.000000 
0.004309 0.904981 0.064522 -0.062822 -10.747970 -0.604371 4.311228 -0.712092 -26.335437 -4.110037 0.611219 4.770658 7.018807 14.695232 14.242064 0.000000 0.000000 0.000000 0.746604 -1.612196 21.614063 -2.088041 0.693876 7.499020 1.431934 1.157508 3.367552 0.000000 0.000000 0.000000 -4.634582 0.095391 6.915610 4.481532 -0.842738 -21.652131 5.030052 8.928564 31.146708 -1.150770 2.910264 -33.041023 0.000000 0.000000 0.000000 -32.435328 -0.320782 -2.655262 -46.142675 -2.682523 -6.733591 -12.002555 -20.230114 3.100978 0.000000 0.000000 0.000000 17.556156 10.687002 5.269488 54.553054 14.190997 -1.777170 5.938986 33.164904 3.451018 0.000000 0.000000 0.000000 
0.009503 0.909191 0.133486 0.742395 -11.045014 -1.648365 1.636018 -1.329668 -24.763380 -3.965503 0.778239 12.001481 7.865507 15.994993 13.772713 0.000000 0.000000 0.000000 -2.296219 -0.845778 20.496041 -0.357135 1.074987 16.658846 1.499078 1.538528 3.033193 0.000000 0.000000 0.000000 -5.442413 0.141100 6.553510 4.821622 -1.082634 -19.887320 3.820627 11.386259 30.715565 0.096405 2.717969 -34.143254 0.000000 0.000000 0.000000 -30.648391 -1.887871 -2.417088 -46.054478 -2.164665 -6.558939 -11.192716 -18.280550 2.554288 0.000000 0.000000 0.000000 18.303645 11.672659 6.386214 53.555763 15.032922 -1.418953 4.197180 29.663695 2.598931 0.000000 0.000000 0.000000 
0.015006 0.918796 0.202273 1.558439 -9.986997 -2.037432 -1.110895 -1.791842 -20.828928 -3.762362 0.741038 13.168323 7.168632 15.044065 11.755272 0.000000 0.000000 0.000000 -4.072000 -0.443035 16.351536 1.552695 1.464379 28.342652 2.390641 -1.703708 12.325546 0.000000 0.000000 0.000000 -6.695725 0.209936 6.092836 5.337417 -1.241488 -19.359806 3.670651 9.664458 29.296514 -0.585464 2.820464 -32.900965 0.000000 0.000000 0.000000 -31.954949 -0.324117 -3.289887 -44.495010 -2.800191 -6.091329 -13.874251 -16.632594 2.712954 0.000000 0.000000 0.000000 16.921681 12.832575 6.504109 54.047477 12.912698 -2.101593 6.483510 28.382243 2.895864 0.000000 0.000000 0.000000 
0.019907 0.929895 0.266155 1.587044 -7.932065 -2.610313 -3.183512 -1.761464 -15.591714 -3.229322 0.532146 12.628622 6.035712 13.310994 9.191878 0.000000 0.000000 0.000000 -5.070941 -0.188916 9.316422 4.887772 0.993481 43.408603 1.383081 -6.129876 20.211867 0.000000 0.000000 0.000000 -6.489354 0.199597 7.378964 4.873537 -0.993343 -20.462650 3.034923 7.945526 28.879698 0.023972 2.446803 -33.402914 0.000000 0.000000 0.000000 -31.083966 -1.487656 -2.170212 -44.346918 -3.942382 -5.729273 -13.048581 -18.227604 2.853041 0.000000 0.000000 0.000000 18.227927 11.383479 5.771733 53.905256 11.968307 -2.541904 6.306530 27.806256 2.778058 0.000000 0.000000 0.000000 
0.023360 0.939155 0.323306 1.375372 -6.743373 -3.645348 -4.302801 -1.132320 -8.658319 -2.387041 0.273922 9.458245 5.023008 11.407056 6.184473 0.000000 0.000000 0.000000 -5.484806 0.069728 2.302327 7.964047 -0.498818 52.940386 -2.097889 -11.089047 19.055354 0.000000 0.000000 0.000000 -5.782465 0.147977 9.009309 4.856636 -0.966901 -20.650062 1.842670 5.750033 28.402596 -0.116730 2.285605 -33.650746 0.000000 0.000000 0.000000 -31.370280 -2.609264 -0.785088 -42.886020 -5.934809 -5.082724 -13.637834 -21.948808 3.620665 0.000000 0.000000 0.000000 19.673560 12.153677 5.909878 52.684157 10.322540 -3.192584 7.001059 28.278337 2.911724 0.000000 0.000000 0.000000 
0.025514 0.947097 0.376297 0.523769 -4.949701 -4.347068 -4.292685 -0.268844 -1.881702 -1.683704 0.120205 6.152034 3.594894 8.646550 4.652223 0.000000 0.000000 0.000000 -4.648156 0.422608 -5.356355 9.999379 -2.343409 56.979823 -5.163587 -15.087095 13.580773 0.000000 0.000000 0.000000 -4.465942 0.017958 10.361015 4.861850 -0.853921 -21.778240 0.849022 3.325134 29.352304 0.190677 1.915340 -33.993212 0.000000 0.000000 0.000000 -31.101168 -3.150880 0.240315 -42.235136 -8.774108 -4.386036 -13.624520 -24.692380 4.163674 0.000000 0.000000 0.000000 19.145877 12.371624 5.679491 53.219798 9.570489 -3.594757 8.137055 28.632375 3.196803 0.000000 0.000000 0.000000 
0.026626 0.951934 0.426960 -0.395595 -2.915124 -4.711442 -3.771088 0.550376 4.382850 -1.006490 0.065325 2.252560 2.018537 5.574466 4.020043 0.000000 0.000000 0.000000 -3.686131 0.863632 -11.515709 10.555185 -3.324227 52.894852 -7.743576 -19.328507 10.216082 0.000000 0.000000 0.000000 -3.146607 -0.137426 11.506265 4.806999 -0.815891 -21.676130 0.009882 1.776680 28.667315 -0.237715 2.079472 -33.815830 0.000000 0.000000 0.000000 -30.145538 -4.845645 1.497800 -41.744162 -12.012862 -3.291223 -13.201302 -27.117814 4.495889 0.000000 0.000000 0.000000 19.233911 11.138024 4.962980 53.042210 8.449848 -4.024264 8.144886 29.270406 3.281317 0.000000 0.000000 0.000000 
0.026145 0.951863 0.476391 -1.159507 -1.449007 -4.953187 -2.946981 1.094540 9.187378 -0.522405 0.060947 -0.038049 0.968969 3.047234 2.486546 0.000000 0.000000 0.000000 -2.663554 1.377725 -16.998432 9.578096 -2.836787 44.048674 -9.072867 -21.703351 8.624921 0.000000 0.000000 0.000000 -2.615760 -0.224927 12.423737 5.154422 -0.855364 -22.035127 -0.552321 -0.107273 28.610633 -0.570277 2.079633 -33.810982 0.000000 0.000000 0.000000 -29.474929 -5.203166 2.138703 -41.833364 -15.030487 -2.437290 -12.141261 -29.369689 4.681786 0.000000 0.000000 0.000000 18.619310 11.031008 4.641913 53.156560 7.283305 -4.505410 8.220644 29.361621 3.266169 0.000000 0.000000 0.000000 
